<svg width="68" height="68" viewBox="0 0 68 68" fill="none" xmlns="http://www.w3.org/2000/svg">
<circle cx="34" cy="34" r="34" fill="#F13CD6"/>
<g filter="url(#filter0_d_6_465)">
<path d="M53 32.5C53.8284 32.5 54.5 33.1716 54.5 34C54.5 34.8284 53.8284 35.5 53 35.5V32.5ZM12.9393 35.0607C12.3536 34.4749 12.3536 33.5251 12.9393 32.9393L22.4853 23.3934C23.0711 22.8076 24.0208 22.8076 24.6066 23.3934C25.1924 23.9792 25.1924 24.9289 24.6066 25.5147L16.1213 34L24.6066 42.4853C25.1924 43.0711 25.1924 44.0208 24.6066 44.6066C24.0208 45.1924 23.0711 45.1924 22.4853 44.6066L12.9393 35.0607ZM53 35.5H14V32.5H53V35.5Z" fill="white"/>
</g>
<defs>
<filter id="filter0_d_6_465" x="8.5" y="22.9541" width="50" height="30.0919" filterUnits="userSpaceOnUse" color-interpolation-filters="sRGB">
<feFlood flood-opacity="0" result="BackgroundImageFix"/>
<feColorMatrix in="SourceAlpha" type="matrix" values="0 0 0 0 0 0 0 0 0 0 0 0 0 0 0 0 0 0 127 0" result="hardAlpha"/>
<feOffset dy="4"/>
<feGaussianBlur stdDeviation="2"/>
<feComposite in2="hardAlpha" operator="out"/>
<feColorMatrix type="matrix" values="0 0 0 0 0 0 0 0 0 0 0 0 0 0 0 0 0 0 0.25 0"/>
<feBlend mode="normal" in2="BackgroundImageFix" result="effect1_dropShadow_6_465"/>
<feBlend mode="normal" in="SourceGraphic" in2="effect1_dropShadow_6_465" result="shape"/>
</filter>
</defs>
</svg>
