<svg width="68" height="68" viewBox="0 0 68 68" fill="none" xmlns="http://www.w3.org/2000/svg">
<circle cx="34" cy="34" r="34" fill="#C9C9C9"/>
<g filter="url(#filter0_d_6_463)">
<path fill-rule="evenodd" clip-rule="evenodd" d="M28.2266 47.8601C28.0611 48.8192 27.2291 49.52 26.2557 49.52H24C22.8954 49.52 22 50.4154 22 51.52V52.32C22 53.4246 22.8954 54.32 24 54.32H39.2C40.3046 54.32 41.2 53.4246 41.2 52.32V51.52C41.2 50.4154 40.3046 49.52 39.2 49.52H37.1341C35.8936 49.52 34.9523 48.4024 35.1632 47.18L39.7733 20.46C39.9388 19.5008 40.7709 18.8 41.7442 18.8H44C45.1046 18.8 46 17.9046 46 16.8V16C46 14.8954 45.1046 14 44 14H28.8C27.6954 14 26.8 14.8954 26.8 16V16.8C26.8 17.9046 27.6954 18.8 28.8 18.8H30.8658C32.1063 18.8 33.0476 19.9176 32.8367 21.1401L28.2266 47.8601Z" fill="black"/>
</g>
<defs>
<filter id="filter0_d_6_463" x="18" y="14" width="32" height="48.32" filterUnits="userSpaceOnUse" color-interpolation-filters="sRGB">
<feFlood flood-opacity="0" result="BackgroundImageFix"/>
<feColorMatrix in="SourceAlpha" type="matrix" values="0 0 0 0 0 0 0 0 0 0 0 0 0 0 0 0 0 0 127 0" result="hardAlpha"/>
<feOffset dy="4"/>
<feGaussianBlur stdDeviation="2"/>
<feComposite in2="hardAlpha" operator="out"/>
<feColorMatrix type="matrix" values="0 0 0 0 0 0 0 0 0 0 0 0 0 0 0 0 0 0 0.25 0"/>
<feBlend mode="normal" in2="BackgroundImageFix" result="effect1_dropShadow_6_463"/>
<feBlend mode="normal" in="SourceGraphic" in2="effect1_dropShadow_6_463" result="shape"/>
</filter>
</defs>
</svg>
