<svg width="7" height="564" viewBox="0 0 7 564" fill="none" xmlns="http://www.w3.org/2000/svg">
<path d="M0.833333 3C0.833333 4.47276 2.02724 5.66667 3.5 5.66667C4.97276 5.66667 6.16667 4.47276 6.16667 3C6.16667 1.52724 4.97276 0.333333 3.5 0.333333C2.02724 0.333333 0.833333 1.52724 0.833333 3ZM0.833333 560.5C0.833333 561.973 2.02724 563.167 3.5 563.167C4.97276 563.167 6.16667 561.973 6.16667 560.5C6.16667 559.027 4.97276 557.833 3.5 557.833C2.02724 557.833 0.833333 559.027 0.833333 560.5ZM3 3V560.5H4V3H3Z" fill="white"/>
</svg>
