<svg width="68" height="69" viewBox="0 0 68 69" fill="none" xmlns="http://www.w3.org/2000/svg">
<ellipse cx="34" cy="34.5" rx="34" ry="34.5" fill="#6680F3"/>
<path d="M20 27H49V41.4226C49 43.051 48.0129 44.5168 46.504 45.1291L34.876 49.8474C34.6349 49.9453 34.3651 49.9453 34.124 49.8474L22.496 45.1291C20.9871 44.5168 20 43.051 20 41.4226V27Z" fill="white"/>
<g filter="url(#filter0_d_6_459)">
<path d="M34.1061 18.1688C34.3576 18.061 34.6424 18.061 34.8939 18.1688L56.8553 27.5809C57.6634 27.9272 57.6634 29.0728 56.8553 29.4191L34.8939 38.8312C34.6424 38.939 34.3576 38.939 34.1061 38.8312L12.1447 29.4191C11.3366 29.0728 11.3366 27.9272 12.1447 27.5809L34.1061 18.1688Z" fill="white"/>
</g>
<defs>
<filter id="filter0_d_6_459" x="7.5386" y="18.088" width="53.9228" height="28.8241" filterUnits="userSpaceOnUse" color-interpolation-filters="sRGB">
<feFlood flood-opacity="0" result="BackgroundImageFix"/>
<feColorMatrix in="SourceAlpha" type="matrix" values="0 0 0 0 0 0 0 0 0 0 0 0 0 0 0 0 0 0 127 0" result="hardAlpha"/>
<feOffset dy="4"/>
<feGaussianBlur stdDeviation="2"/>
<feComposite in2="hardAlpha" operator="out"/>
<feColorMatrix type="matrix" values="0 0 0 0 0 0 0 0 0 0 0 0 0 0 0 0 0 0 0.25 0"/>
<feBlend mode="normal" in2="BackgroundImageFix" result="effect1_dropShadow_6_459"/>
<feBlend mode="normal" in="SourceGraphic" in2="effect1_dropShadow_6_459" result="shape"/>
</filter>
</defs>
</svg>
