<svg width="68" height="68" viewBox="0 0 68 68" fill="none" xmlns="http://www.w3.org/2000/svg">
<circle cx="34" cy="34" r="34" fill="#C9C9C9"/>
<g filter="url(#filter0_d_6_466)">
<path fill-rule="evenodd" clip-rule="evenodd" d="M44.1246 42.5318C44.7025 41.3537 45 40.091 45 38.8158V17C45 15.3431 43.6569 14 42 14H41.7273C40.0704 14 38.7273 15.3431 38.7273 17V38.805C38.7273 38.811 38.7321 38.8158 38.738 38.8158V38.8158C38.744 38.8158 38.7488 38.8206 38.7488 38.8266C38.7471 39.4049 38.6114 39.9775 38.3493 40.5119C38.0855 41.0496 37.6989 41.5382 37.2115 41.9497C36.7241 42.3613 36.1454 42.6877 35.5086 42.9105C34.8718 43.1332 34.1893 43.2478 33.5 43.2478C32.8107 43.2478 32.1282 43.1332 31.4914 42.9105C30.8546 42.6877 30.2759 42.3613 29.7885 41.9497C29.3011 41.5382 28.9145 41.0496 28.6507 40.5119C28.3886 39.9775 28.2529 39.4049 28.2512 38.8266C28.2512 38.8206 28.256 38.8158 28.262 38.8158V38.8158C28.2679 38.8158 28.2727 38.811 28.2727 38.805V17C28.2727 15.3431 26.9296 14 25.2727 14H25C23.3431 14 22 15.3431 22 17L22 38.8158C22 40.091 22.2975 41.3537 22.8754 42.5318C23.4533 43.71 24.3004 44.7805 25.3683 45.6822C26.4361 46.5839 27.7039 47.2991 29.0991 47.7871C30.4944 48.2751 31.9898 48.5263 33.5 48.5263C35.0102 48.5263 36.5056 48.2751 37.9009 47.7871C39.2961 47.2991 40.5639 46.5839 41.6317 45.6822C42.6996 44.7805 43.5467 43.71 44.1246 42.5318Z" fill="black"/>
<rect x="22" y="50.6842" width="23" height="4.31579" rx="2.15789" fill="black"/>
</g>
<defs>
<filter id="filter0_d_6_466" x="18" y="14" width="31" height="49" filterUnits="userSpaceOnUse" color-interpolation-filters="sRGB">
<feFlood flood-opacity="0" result="BackgroundImageFix"/>
<feColorMatrix in="SourceAlpha" type="matrix" values="0 0 0 0 0 0 0 0 0 0 0 0 0 0 0 0 0 0 127 0" result="hardAlpha"/>
<feOffset dy="4"/>
<feGaussianBlur stdDeviation="2"/>
<feComposite in2="hardAlpha" operator="out"/>
<feColorMatrix type="matrix" values="0 0 0 0 0 0 0 0 0 0 0 0 0 0 0 0 0 0 0.25 0"/>
<feBlend mode="normal" in2="BackgroundImageFix" result="effect1_dropShadow_6_466"/>
<feBlend mode="normal" in="SourceGraphic" in2="effect1_dropShadow_6_466" result="shape"/>
</filter>
</defs>
</svg>
