<svg width="403" height="99" viewBox="0 0 403 99" fill="none" xmlns="http://www.w3.org/2000/svg">
<rect width="403" height="99" rx="49.5" fill="#252525"/>
<path d="M51.1259 75.9311C43.8492 75.9311 38.5114 74.1162 35.1125 70.4864C31.7042 66.8565 30 62.0642 30 56.1095C30 50.1639 31.0469 44.7422 33.1407 39.8442C35.2251 34.9554 38.333 30.9351 42.4643 27.7831C46.5956 24.6403 51.0696 23.0689 55.8863 23.0689C60.6936 23.0689 64.4728 24.2038 67.2238 26.4736C69.9655 28.7526 71.3363 31.8081 71.3363 35.6401C71.3363 39.4812 70.1298 42.6654 67.7168 45.1925C65.2943 47.7195 62.4635 48.9831 59.2241 48.9831C55.9848 48.9831 53.4732 48.2801 51.6892 46.8741C49.9053 45.4773 49.0133 43.984 49.0133 42.3943C49.0133 40.8137 49.6612 39.5731 50.9569 38.6726C52.2432 37.7812 54.1305 37.3355 56.6186 37.3355C56.0083 37.9328 55.7032 38.7231 55.7032 39.7064C55.7032 40.6988 56.0083 41.5626 56.6186 42.2978C57.2289 43.0329 58.1679 43.4005 59.4354 43.4005C60.703 43.4005 61.9705 42.7435 63.2381 41.4294C64.5056 40.1245 65.1394 38.3923 65.1394 36.2328C65.1394 34.0733 64.4728 32.3502 63.1395 31.0637C61.7968 29.7772 59.9049 29.1339 57.4637 29.1339C54.2713 29.1339 51.3747 30.3975 48.7739 32.9246C46.1637 35.4517 44.1778 38.668 42.8164 42.5735C41.4549 46.479 40.7742 50.5912 40.7742 54.9103C40.7742 58.632 41.5958 61.9172 43.2389 64.7659C44.0839 66.2362 45.3421 67.4079 47.0134 68.2809C48.6753 69.1539 50.633 69.5904 52.8864 69.5904C56.736 69.5904 60.4448 68.382 64.0127 65.9652C67.5806 63.5575 70.5852 60.4469 73.0264 56.6333L75.4207 60.8375C72.6508 65.2484 69.1768 68.8644 64.9986 71.6856C60.8203 74.5159 56.1961 75.9311 51.1259 75.9311ZM91.4763 51.3953C91.4763 49.3736 90.5233 48.3628 88.6173 48.3628C86.7207 48.3628 85.209 49.5574 84.0823 51.9467C89.1525 55.8522 91.6876 60.2401 91.6876 65.1105C91.6876 68.6485 90.6783 71.3364 88.6596 73.1743C86.6409 75.0121 84.1058 75.9311 81.0542 75.9311C78.0027 75.9311 75.7728 74.9984 74.3644 73.1329C72.956 71.2766 72.2518 68.9241 72.2518 66.0754C72.2518 65.2024 72.2753 64.5592 72.3222 64.1456L74.7869 43.1248C76.477 42.6194 78.1905 42.3667 79.9275 42.3667C82.7913 42.3667 84.2231 43.4005 84.2231 45.4681V45.606C86.101 43.4465 88.4952 42.3667 91.4059 42.3667C93.5185 42.3667 95.1616 42.8354 96.3353 43.7727C97.509 44.7192 98.0958 45.9736 98.0958 47.5358C98.0958 49.098 97.4949 50.3707 96.293 51.354C95.1006 52.3464 93.542 52.8427 91.6172 52.8427C91.5233 52.8427 91.4294 52.8427 91.3355 52.8427C91.4294 52.3372 91.4763 51.8548 91.4763 51.3953ZM87.1103 64.7659C87.1103 62.101 85.7019 59.4361 82.8851 56.7711C82.0401 63.3875 81.6176 66.7187 81.6176 66.7646C81.6176 68.6944 82.4157 69.6593 84.0119 69.6593C86.0775 69.6593 87.1103 68.0282 87.1103 64.7659ZM112.813 60.0793C115.715 59.482 117.884 58.3333 119.32 56.6333C120.747 54.9332 121.461 53.2883 121.461 51.6986C121.461 50.118 121.029 49.0382 120.165 48.4593C119.292 47.8896 118.339 47.6047 117.306 47.6047C115.1 47.6047 113.166 48.8085 111.504 51.2161C109.832 53.6329 108.997 56.5046 108.997 59.8312C108.997 63.167 109.809 65.6481 111.433 67.2746C113.058 68.9104 115.062 69.7282 117.447 69.7282C120.968 69.7282 124.353 68.5336 127.602 66.1443C130.841 63.7551 133.465 60.6307 135.475 56.7711C136.517 57.736 137.456 58.9306 138.291 60.355C136.751 63.801 134.01 67.1782 130.066 70.4864C128.085 72.0945 125.747 73.404 123.053 74.4148C120.348 75.4257 117.564 75.9311 114.701 75.9311C110.006 75.9311 106.297 74.5297 103.574 71.7269C100.664 68.6944 99.2084 64.8119 99.2084 60.0793C99.2084 55.3468 101.03 51.2115 104.673 47.6736C108.307 44.1357 112.663 42.3667 117.743 42.3667C121.348 42.3667 124.283 43.134 126.545 44.6687C128.789 46.2125 129.94 48.2939 129.996 50.9129C129.996 54.4508 128.55 57.3225 125.658 59.528C122.766 61.7334 118.809 63.2727 113.785 64.1456L112.813 60.0793ZM163.854 75.8622C159.535 75.8622 156.671 74.3919 155.262 71.4512C152.821 74.4378 149.69 75.9311 145.868 75.9311C142.038 75.9311 138.822 74.6675 136.221 72.1404C133.611 69.6134 132.306 66.2822 132.306 62.1469C132.306 56.1279 134.113 51.3264 137.728 47.7425C141.343 44.1586 145.92 42.3667 151.46 42.3667C151.601 42.3667 151.741 42.3667 151.882 42.3667C154.23 42.3667 156.389 42.7573 158.361 43.5384C159.628 42.7573 161.168 42.3667 162.98 42.3667C164.783 42.3667 166.084 42.5964 166.882 43.0559C166.459 46.456 166.013 49.7964 165.544 53.077C165.074 56.3668 164.746 58.7009 164.558 60.0793C164.135 63.2037 163.924 65.4551 163.924 66.8336C163.924 68.6714 164.675 69.5904 166.177 69.5904C167.351 69.5904 168.595 68.8185 169.91 67.2746C171.224 65.74 172.374 63.3186 173.36 60.0104C174.722 61.205 175.661 62.5375 176.177 64.0078C174.816 68.3728 172.985 71.4375 170.684 73.2018C168.384 74.9754 166.107 75.8622 163.854 75.8622ZM152.516 47.7425C149.512 47.7425 147.131 48.8544 145.376 51.0783C143.61 53.3113 142.563 56.6333 142.235 61.0442C142.188 61.4577 142.164 61.8483 142.164 62.2159C142.164 64.4673 142.718 66.2592 143.826 67.5917C144.925 68.9241 146.343 69.5904 148.08 69.5904C151.037 69.5904 153.267 67.5457 154.77 63.4564L156.46 48.5696C155.098 48.0182 153.784 47.7425 152.516 47.7425ZM187.022 27.5488C187.022 27.8244 186.388 32.7638 185.12 42.3667H195.472V47.6736H184.416L184.205 49.3966C189.698 53.8994 192.444 58.8158 192.444 64.1456C192.444 68.3268 191.355 71.3364 189.177 73.1743C186.989 75.0121 184.369 75.9311 181.318 75.9311C178.266 75.9311 176.036 75.1362 174.628 73.5464C173.219 71.9658 172.515 70.0499 172.515 67.7984C172.515 67.293 172.562 66.7417 172.656 66.1443L174.839 47.8114L174.557 47.6736H168.853C168.806 47.2141 168.783 46.4652 168.783 45.4268C168.783 44.3976 168.994 43.3775 169.417 42.3667H175.473L177.726 23.6203C178.712 23.2527 180.027 23.0689 181.67 23.0689C185.238 23.0689 187.022 24.5622 187.022 27.5488ZM187.726 64.0767C187.726 60.9064 186.318 57.782 183.501 54.7035C182.656 61.5496 182.233 65.5011 182.233 66.5579C182.233 68.6255 182.914 69.6593 184.275 69.6593C185.261 69.6593 186.083 69.209 186.74 68.3085C187.397 67.4171 187.726 66.0065 187.726 64.0767ZM200.683 24.7506C201.763 23.6754 203.077 23.1378 204.627 23.1378C206.176 23.1378 207.5 23.6754 208.598 24.7506C209.706 25.8349 210.26 27.1352 210.26 28.6515C210.26 30.1677 209.706 31.4543 208.598 32.5111C207.5 33.5678 206.176 34.0962 204.627 34.0962C203.077 34.0962 201.763 33.5678 200.683 32.5111C199.603 31.4543 199.063 30.1677 199.063 28.6515C199.063 27.1352 199.603 25.8349 200.683 24.7506ZM197.796 44.9857C198.265 44.1586 199.157 43.5246 200.472 43.0835C201.786 42.6516 203.087 42.4356 204.373 42.4356C205.669 42.4356 206.81 42.5964 207.795 42.9181C205.965 56.7482 205.049 63.7321 205.049 63.87C204.814 64.7889 204.697 65.5562 204.697 66.1719C204.697 66.7968 204.744 67.339 204.838 67.7984C205.026 68.9931 205.88 69.5904 207.401 69.5904C208.932 69.5904 210.34 68.6117 211.626 66.6544C212.922 64.7062 213.899 62.4916 214.556 60.0104C214.884 60.1942 215.401 60.7456 216.105 61.6645C216.809 62.5834 217.232 63.2727 217.373 63.7321C216.434 67.4079 214.837 70.3715 212.584 72.6229C210.331 74.8743 207.631 76 204.486 76C201.34 76 199.002 75.2419 197.472 73.7256C195.951 72.2094 195.19 70.2566 195.19 67.8674C195.19 67.3619 195.214 66.8336 195.261 66.2822L197.796 44.9857ZM238.104 63.1808C236.63 66.9025 234.517 69.9442 231.766 72.3059C229.025 74.6767 225.893 75.8622 222.372 75.8622C218.851 75.8622 216.208 74.7227 214.443 72.4437C212.687 70.1739 211.809 67.5687 211.809 64.6281C211.809 64.0308 211.833 63.4335 211.88 62.8362L214.274 43.1938C215.776 42.6424 217.373 42.3667 219.063 42.3667C222.161 42.3667 223.71 43.4924 223.71 45.7438C223.71 45.8357 223.321 48.9004 222.541 54.9378C221.771 60.9845 221.386 64.4903 221.386 65.4551C221.386 68.0741 222.678 69.3836 225.26 69.3836C227.466 69.3836 229.32 68.166 230.823 65.7308C233.452 61.3199 234.837 56.3346 234.977 50.775H234.344C232.372 50.775 230.87 50.3385 229.837 49.4655C228.663 48.4547 228.076 47.2371 228.076 45.8127C228.076 44.3884 228.522 43.2397 229.414 42.3667C230.494 41.4478 231.785 40.9883 233.287 40.9883C236.855 40.9883 239.085 42.8032 239.977 46.433C241.386 46.2492 242.395 46.0655 243.005 45.8817V49.8101L240.4 50.2237V51.3953C240.353 55.5306 239.588 59.459 238.104 63.1808ZM232.09 45.8127C232.09 46.5938 232.771 46.9844 234.132 46.9844C234.273 46.9844 234.414 46.9844 234.555 46.9844C234.226 45.7438 233.733 45.1235 233.076 45.1235C232.419 45.1235 232.09 45.3533 232.09 45.8127ZM256.653 60.0793C259.563 59.482 261.737 58.3333 263.173 56.6333C264.601 54.9332 265.314 53.2883 265.314 51.6986C265.314 50.118 264.882 49.0382 264.019 48.4593C263.145 47.8896 262.192 47.6047 261.16 47.6047C258.953 47.6047 257.019 48.8085 255.357 51.2161C253.686 53.6329 252.85 56.5046 252.85 59.8312C252.85 63.167 253.662 65.6481 255.287 67.2746C256.901 68.9104 258.906 69.7282 261.3 69.7282C264.821 69.7282 268.201 68.5336 271.441 66.1443C274.68 63.7551 277.309 60.6307 279.328 56.7711C280.361 57.736 281.3 58.9306 282.145 60.355C280.595 63.801 277.849 67.1782 273.905 70.4864C271.934 72.0945 269.6 73.404 266.906 74.4148C264.202 75.4257 261.418 75.9311 258.554 75.9311C253.859 75.9311 250.151 74.5297 247.428 71.7269C244.517 68.6944 243.062 64.8119 243.062 60.0793C243.062 55.3468 244.883 51.2115 248.526 47.6736C252.16 44.1357 256.512 42.3667 261.582 42.3667C265.197 42.3667 268.131 43.134 270.384 44.6687C272.638 46.2125 273.788 48.2939 273.835 50.9129C273.835 54.4508 272.394 57.3225 269.511 59.528C266.619 61.7334 262.662 63.2727 257.639 64.1456L256.653 60.0793ZM320.523 23.896V23.5514C321.509 23.1838 322.894 23 324.678 23C326.462 23 328.058 23.1149 329.467 23.3446C328.011 33.9124 326.875 43.4786 326.058 52.0432C325.232 60.6169 324.786 65.1335 324.72 65.593C324.645 66.0525 324.608 66.466 324.608 66.8336C324.655 68.0282 325.241 68.6255 326.368 68.6255C329.185 68.6255 333.105 65.4551 338.128 59.1144C339.02 61.5496 339.537 63.1808 339.677 64.0078C337.424 67.4998 334.715 70.3577 331.551 72.5815C328.377 74.8146 325.382 75.9311 322.565 75.9311C319.749 75.9311 317.8 75.2189 316.721 73.7945C315.641 72.3702 315.101 70.785 315.101 69.039C315.101 68.6255 315.162 67.8214 315.284 66.6268C315.397 65.4322 316.322 57.9887 318.059 44.2965L306.51 70.4174H300.524L297.074 44.71L292.144 66.0754C291.346 69.4755 290.046 71.9796 288.243 73.5878C286.431 75.1959 284.445 76 282.285 76C280.126 76 278.365 75.3797 277.004 74.1391C275.549 72.8067 274.821 70.9229 274.821 68.4877C274.821 63.6173 278.671 59.459 286.37 56.013C290.548 36.3936 292.801 25.5271 293.13 23.4135C294.257 23.1378 295.773 23 297.679 23C299.576 23 300.876 23.0459 301.58 23.1378H302.073L306.439 55.186L320.523 23.896ZM279.821 67.316C279.821 68.7863 280.408 69.5215 281.581 69.5215C282.379 69.5215 283.037 68.9012 283.553 67.6606C284.21 66.1443 284.75 64.1456 285.173 61.6645C281.605 63.6402 279.821 65.5241 279.821 67.316ZM346.508 60.0793C349.419 59.482 351.588 58.3333 353.015 56.6333C354.451 54.9332 355.17 53.2883 355.17 51.6986C355.17 50.118 354.733 49.0382 353.86 48.4593C352.996 47.8896 352.048 47.6047 351.015 47.6047C348.808 47.6047 346.87 48.8085 345.198 51.2161C343.536 53.6329 342.705 56.5046 342.705 59.8312C342.705 63.167 343.513 65.6481 345.128 67.2746C346.752 68.9104 348.762 69.7282 351.156 69.7282C354.677 69.7282 358.057 68.5336 361.296 66.1443C364.536 63.7551 367.165 60.6307 369.183 56.7711C370.216 57.736 371.155 58.9306 372 60.355C370.451 63.801 367.704 67.1782 363.761 70.4864C361.789 72.0945 359.451 73.404 356.747 74.4148C354.052 75.4257 351.273 75.9311 348.409 75.9311C343.715 75.9311 340.006 74.5297 337.283 71.7269C334.372 68.6944 332.917 64.8119 332.917 60.0793C332.917 55.3468 334.734 51.2115 338.368 47.6736C342.011 44.1357 346.367 42.3667 351.437 42.3667C355.052 42.3667 357.986 43.134 360.24 44.6687C362.493 46.2125 363.644 48.2939 363.69 50.9129C363.69 54.4508 362.245 57.3225 359.353 59.528C356.47 61.7334 352.517 63.2727 347.494 64.1456L346.508 60.0793Z" fill="url(#paint0_linear_76_77)"/>
<defs>
<linearGradient id="paint0_linear_76_77" x1="372" y1="47.4803" x2="34.5111" y2="8.22785" gradientUnits="userSpaceOnUse">
<stop stop-color="#2E9BFF"/>
<stop offset="1" stop-color="#FF34D2"/>
</linearGradient>
</defs>
</svg>
