<svg width="403" height="99" viewBox="0 0 403 99" fill="none" xmlns="http://www.w3.org/2000/svg">
<rect width="403" height="99" rx="49.5" fill="white"/>
<path d="M105.296 59.5977C105.296 60.9759 105.032 62.2692 104.503 63.4775C103.993 64.6859 103.285 65.7432 102.379 66.6494C101.473 67.5557 100.415 68.2731 99.207 68.8018C97.9987 69.3115 96.7054 69.5664 95.3271 69.5664H92.4385C91.0602 69.5664 89.7575 69.3115 88.5303 68.8018C87.3219 68.2731 86.2646 67.5557 85.3584 66.6494C84.4521 65.7432 83.7347 64.6859 83.2061 63.4775C82.6963 62.2692 82.4414 60.9759 82.4414 59.5977V37.791C82.4414 36.4128 82.6963 35.1195 83.2061 33.9111C83.7347 32.7028 84.4521 31.6455 85.3584 30.7393C86.2646 29.833 87.3219 29.125 88.5303 28.6152C89.7575 28.0866 91.0602 27.8223 92.4385 27.8223H95.3271C96.7054 27.8223 97.9987 28.0866 99.207 28.6152C100.415 29.125 101.473 29.833 102.379 30.7393C103.285 31.6455 103.993 32.7028 104.503 33.9111C105.032 35.1195 105.296 36.4128 105.296 37.791V39.4336L101.643 40V37.791C101.643 36.8848 101.473 36.0446 101.133 35.2705C100.793 34.4775 100.33 33.7884 99.7451 33.2031C99.1598 32.6178 98.4707 32.1553 97.6777 31.8154C96.9036 31.4756 96.0635 31.3057 95.1572 31.3057H92.6084C91.7021 31.3057 90.8525 31.4756 90.0596 31.8154C89.2855 32.1553 88.5964 32.6178 87.9922 33.2031C87.4069 33.7884 86.9443 34.4775 86.6045 35.2705C86.2646 36.0446 86.0947 36.8848 86.0947 37.791V59.5977C86.0947 60.5039 86.2646 61.3535 86.6045 62.1465C86.9443 62.9206 87.4069 63.6097 87.9922 64.2139C88.5964 64.7992 89.2855 65.2617 90.0596 65.6016C90.8525 65.9414 91.7021 66.1113 92.6084 66.1113H95.1572C96.0635 66.1113 96.9036 65.9414 97.6777 65.6016C98.4707 65.2617 99.1598 64.7992 99.7451 64.2139C100.33 63.6097 100.793 62.9206 101.133 62.1465C101.473 61.3535 101.643 60.5039 101.643 59.5977V57.3887L105.296 57.9834V59.5977ZM120.815 43.3135C120.117 43.3135 119.456 43.4456 118.833 43.71C118.229 43.9743 117.7 44.333 117.247 44.7861C116.794 45.2393 116.435 45.7773 116.171 46.4004C115.907 47.0046 115.774 47.6559 115.774 48.3545V69H112.291V40H113.452L115.35 42.9453C116.143 41.8691 117.134 41.0195 118.323 40.3965C119.532 39.7546 120.844 39.4336 122.26 39.4336H124.299V43.3135H120.815ZM148.314 61.042C148.314 62.2126 148.088 63.3171 147.635 64.3555C147.201 65.3939 146.596 66.3001 145.822 67.0742C145.048 67.8483 144.142 68.4619 143.104 68.915C142.065 69.3493 140.961 69.5664 139.79 69.5664H137.468C136.297 69.5664 135.193 69.3493 134.154 68.915C133.116 68.4619 132.21 67.8483 131.436 67.0742C130.661 66.3001 130.048 65.3939 129.595 64.3555C129.16 63.3171 128.943 62.2126 128.943 61.042V47.958C128.943 46.7874 129.16 45.6829 129.595 44.6445C130.048 43.6061 130.661 42.6999 131.436 41.9258C132.21 41.1517 133.116 40.5475 134.154 40.1133C135.193 39.6602 136.297 39.4336 137.468 39.4336H139.79C140.961 39.4336 142.065 39.6602 143.104 40.1133C144.142 40.5475 145.048 41.1517 145.822 41.9258C146.596 42.6999 147.201 43.6061 147.635 44.6445C148.088 45.6829 148.314 46.7874 148.314 47.958V54.7832H132.427V61.2402C132.427 61.9388 132.559 62.5996 132.823 63.2227C133.088 63.8268 133.446 64.3555 133.899 64.8086C134.353 65.2617 134.881 65.6204 135.485 65.8848C136.108 66.1491 136.769 66.2812 137.468 66.2812H139.79C140.489 66.2812 141.14 66.1491 141.744 65.8848C142.367 65.6204 142.905 65.2617 143.358 64.8086C143.812 64.3555 144.17 63.8268 144.435 63.2227C144.699 62.5996 144.831 61.9388 144.831 61.2402V59.3145L148.314 59.8809V61.042ZM144.831 47.7598C144.831 47.0612 144.699 46.4098 144.435 45.8057C144.17 45.1826 143.812 44.6445 143.358 44.1914C142.905 43.7383 142.367 43.3796 141.744 43.1152C141.14 42.8509 140.489 42.7188 139.79 42.7188H137.468C136.769 42.7188 136.108 42.8509 135.485 43.1152C134.881 43.3796 134.353 43.7383 133.899 44.1914C133.446 44.6445 133.088 45.1826 132.823 45.8057C132.559 46.4098 132.427 47.0612 132.427 47.7598V52.0645H144.831V47.7598ZM173.491 69L171.565 66.1113C170.772 67.1497 169.781 67.9899 168.592 68.6318C167.402 69.2549 166.1 69.5664 164.684 69.5664H163.806C162.635 69.5664 161.531 69.3493 160.492 68.915C159.454 68.4619 158.548 67.8483 157.773 67.0742C156.999 66.3001 156.386 65.3939 155.933 64.3555C155.498 63.3171 155.281 62.2126 155.281 61.042V60.7588C155.281 59.5882 155.498 58.4837 155.933 57.4453C156.386 56.4069 156.999 55.5007 157.773 54.7266C158.548 53.9525 159.454 53.3483 160.492 52.9141C161.531 52.4609 162.635 52.2344 163.806 52.2344H171.169V47.7598C171.169 47.0612 171.037 46.4098 170.772 45.8057C170.508 45.1826 170.149 44.6445 169.696 44.1914C169.243 43.7383 168.705 43.3796 168.082 43.1152C167.478 42.8509 166.826 42.7188 166.128 42.7188H164.089C163.39 42.7188 162.729 42.8509 162.106 43.1152C161.502 43.3796 160.974 43.7383 160.521 44.1914C160.067 44.6445 159.709 45.1826 159.444 45.8057C159.18 46.4098 159.048 47.0612 159.048 47.7598V48.8076L155.564 48.2412V47.958C155.564 46.7874 155.782 45.6829 156.216 44.6445C156.669 43.6061 157.283 42.6999 158.057 41.9258C158.831 41.1517 159.737 40.5475 160.775 40.1133C161.814 39.6602 162.918 39.4336 164.089 39.4336H166.128C167.299 39.4336 168.403 39.6602 169.441 40.1133C170.48 40.5475 171.386 41.1517 172.16 41.9258C172.934 42.6999 173.538 43.6061 173.973 44.6445C174.426 45.6829 174.652 46.7874 174.652 47.958V69H173.491ZM171.169 54.9531H163.806C163.107 54.9531 162.446 55.0853 161.823 55.3496C161.219 55.6139 160.69 55.9821 160.237 56.4541C159.784 56.9072 159.425 57.4453 159.161 58.0684C158.897 58.6725 158.765 59.3239 158.765 60.0225V61.2402C158.765 61.9388 158.897 62.5996 159.161 63.2227C159.425 63.8268 159.784 64.3555 160.237 64.8086C160.69 65.2617 161.219 65.6204 161.823 65.8848C162.446 66.1491 163.107 66.2812 163.806 66.2812H166.128C166.826 66.2812 167.478 66.1491 168.082 65.8848C168.705 65.6204 169.243 65.2617 169.696 64.8086C170.149 64.3555 170.508 63.8268 170.772 63.2227C171.037 62.5996 171.169 61.9388 171.169 61.2402V54.9531ZM192.183 69C191.125 69 190.125 68.8018 189.181 68.4053C188.256 68.0088 187.444 67.4613 186.745 66.7627C186.065 66.0641 185.518 65.2523 185.103 64.3271C184.706 63.402 184.508 62.4108 184.508 61.3535V43.3135H179.297V40H184.508V33.0332L187.991 32.4668V40H195.354V43.3135H187.991V61.5234C187.991 62.1087 188.095 62.6563 188.303 63.166C188.529 63.6569 188.831 64.0911 189.209 64.4688C189.587 64.8464 190.03 65.1484 190.54 65.375C191.05 65.5827 191.597 65.6865 192.183 65.6865H195.354V69H192.183ZM202.661 33.0332V28.3887H206.711V33.0332H202.661ZM202.944 69V40H206.428V69H202.944ZM223.675 69H221.947L211.667 40H215.15L222.712 61.9766L222.825 63.4775L222.938 61.9766L230.472 40H233.955L223.675 69ZM257.404 61.042C257.404 62.2126 257.178 63.3171 256.725 64.3555C256.29 65.3939 255.686 66.3001 254.912 67.0742C254.138 67.8483 253.232 68.4619 252.193 68.915C251.155 69.3493 250.05 69.5664 248.88 69.5664H246.558C245.387 69.5664 244.283 69.3493 243.244 68.915C242.206 68.4619 241.299 67.8483 240.525 67.0742C239.751 66.3001 239.138 65.3939 238.685 64.3555C238.25 63.3171 238.033 62.2126 238.033 61.042V47.958C238.033 46.7874 238.25 45.6829 238.685 44.6445C239.138 43.6061 239.751 42.6999 240.525 41.9258C241.299 41.1517 242.206 40.5475 243.244 40.1133C244.283 39.6602 245.387 39.4336 246.558 39.4336H248.88C250.05 39.4336 251.155 39.6602 252.193 40.1133C253.232 40.5475 254.138 41.1517 254.912 41.9258C255.686 42.6999 256.29 43.6061 256.725 44.6445C257.178 45.6829 257.404 46.7874 257.404 47.958V54.7832H241.517V61.2402C241.517 61.9388 241.649 62.5996 241.913 63.2227C242.177 63.8268 242.536 64.3555 242.989 64.8086C243.442 65.2617 243.971 65.6204 244.575 65.8848C245.198 66.1491 245.859 66.2813 246.558 66.2813H248.88C249.578 66.2813 250.23 66.1491 250.834 65.8848C251.457 65.6204 251.995 65.2617 252.448 64.8086C252.901 64.3555 253.26 63.8268 253.524 63.2227C253.789 62.5996 253.921 61.9388 253.921 61.2402V59.3145L257.404 59.8809V61.042ZM253.921 47.7598C253.921 47.0612 253.789 46.4098 253.524 45.8057C253.26 45.1826 252.901 44.6445 252.448 44.1914C251.995 43.7383 251.457 43.3796 250.834 43.1152C250.23 42.8509 249.578 42.7188 248.88 42.7188H246.558C245.859 42.7188 245.198 42.8509 244.575 43.1152C243.971 43.3796 243.442 43.7383 242.989 44.1914C242.536 44.6445 242.177 45.1826 241.913 45.8057C241.649 46.4098 241.517 47.0612 241.517 47.7598V52.0645H253.921V47.7598ZM290.539 69V41.1611L290.284 42.8887L280.854 69H278.928L269.412 42.8887L269.186 41.1611V69H265.532V28.3887H267.43L279.749 61.6934L279.862 63.1943L279.976 61.6934L292.267 28.3887H294.192V69H290.539ZM321.125 61.042C321.125 62.2126 320.898 63.3171 320.445 64.3555C320.011 65.3939 319.407 66.3001 318.633 67.0742C317.859 67.8483 316.952 68.4619 315.914 68.915C314.876 69.3493 313.771 69.5664 312.601 69.5664H310.278C309.108 69.5664 308.003 69.3493 306.965 68.915C305.926 68.4619 305.02 67.8483 304.246 67.0742C303.472 66.3001 302.858 65.3939 302.405 64.3555C301.971 63.3171 301.754 62.2126 301.754 61.042V47.958C301.754 46.7874 301.971 45.6829 302.405 44.6445C302.858 43.6061 303.472 42.6999 304.246 41.9258C305.02 41.1517 305.926 40.5475 306.965 40.1133C308.003 39.6602 309.108 39.4336 310.278 39.4336H312.601C313.771 39.4336 314.876 39.6602 315.914 40.1133C316.952 40.5475 317.859 41.1517 318.633 41.9258C319.407 42.6999 320.011 43.6061 320.445 44.6445C320.898 45.6829 321.125 46.7874 321.125 47.958V54.7832H305.237V61.2402C305.237 61.9388 305.369 62.5996 305.634 63.2227C305.898 63.8268 306.257 64.3555 306.71 64.8086C307.163 65.2617 307.692 65.6204 308.296 65.8848C308.919 66.1491 309.58 66.2813 310.278 66.2813H312.601C313.299 66.2813 313.951 66.1491 314.555 65.8848C315.178 65.6204 315.716 65.2617 316.169 64.8086C316.622 64.3555 316.981 63.8268 317.245 63.2227C317.509 62.5996 317.642 61.9388 317.642 61.2402V59.3145L321.125 59.8809V61.042ZM317.642 47.7598C317.642 47.0612 317.509 46.4098 317.245 45.8057C316.981 45.1826 316.622 44.6445 316.169 44.1914C315.716 43.7383 315.178 43.3796 314.555 43.1152C313.951 42.8509 313.299 42.7188 312.601 42.7188H310.278C309.58 42.7188 308.919 42.8509 308.296 43.1152C307.692 43.3796 307.163 43.7383 306.71 44.1914C306.257 44.6445 305.898 45.1826 305.634 45.8057C305.369 46.4098 305.237 47.0612 305.237 47.7598V52.0645H317.642V47.7598Z" fill="#FF34D2"/>
</svg>
