<svg width="467" height="163" viewBox="0 0 467 163" fill="none" xmlns="http://www.w3.org/2000/svg">
<g filter="url(#filter0_d_71_5)">
<rect x="32" y="32" width="403" height="99" rx="49.5" fill="#252525"/>
</g>
<path d="M137.296 91.5977C137.296 92.9759 137.032 94.2692 136.503 95.4775C135.993 96.6859 135.285 97.7432 134.379 98.6494C133.473 99.5557 132.415 100.273 131.207 100.802C129.999 101.312 128.705 101.566 127.327 101.566H124.438C123.06 101.566 121.757 101.312 120.53 100.802C119.322 100.273 118.265 99.5557 117.358 98.6494C116.452 97.7432 115.735 96.6859 115.206 95.4775C114.696 94.2692 114.441 92.9759 114.441 91.5977V69.791C114.441 68.4128 114.696 67.1195 115.206 65.9111C115.735 64.7028 116.452 63.6455 117.358 62.7393C118.265 61.833 119.322 61.125 120.53 60.6152C121.757 60.0866 123.06 59.8223 124.438 59.8223H127.327C128.705 59.8223 129.999 60.0866 131.207 60.6152C132.415 61.125 133.473 61.833 134.379 62.7393C135.285 63.6455 135.993 64.7028 136.503 65.9111C137.032 67.1195 137.296 68.4128 137.296 69.791V71.4336L133.643 72V69.791C133.643 68.8848 133.473 68.0446 133.133 67.2705C132.793 66.4775 132.33 65.7884 131.745 65.2031C131.16 64.6178 130.471 64.1553 129.678 63.8154C128.904 63.4756 128.063 63.3057 127.157 63.3057H124.608C123.702 63.3057 122.853 63.4756 122.06 63.8154C121.285 64.1553 120.596 64.6178 119.992 65.2031C119.407 65.7884 118.944 66.4775 118.604 67.2705C118.265 68.0446 118.095 68.8848 118.095 69.791V91.5977C118.095 92.5039 118.265 93.3535 118.604 94.1465C118.944 94.9206 119.407 95.6097 119.992 96.2139C120.596 96.7992 121.285 97.2617 122.06 97.6016C122.853 97.9414 123.702 98.1113 124.608 98.1113H127.157C128.063 98.1113 128.904 97.9414 129.678 97.6016C130.471 97.2617 131.16 96.7992 131.745 96.2139C132.33 95.6097 132.793 94.9206 133.133 94.1465C133.473 93.3535 133.643 92.5039 133.643 91.5977V89.3887L137.296 89.9834V91.5977ZM152.815 75.3135C152.117 75.3135 151.456 75.4456 150.833 75.71C150.229 75.9743 149.7 76.333 149.247 76.7861C148.794 77.2393 148.435 77.7773 148.171 78.4004C147.907 79.0046 147.774 79.6559 147.774 80.3545V101H144.291V72H145.452L147.35 74.9453C148.143 73.8691 149.134 73.0195 150.323 72.3965C151.532 71.7546 152.844 71.4336 154.26 71.4336H156.299V75.3135H152.815ZM180.314 93.042C180.314 94.2126 180.088 95.3171 179.635 96.3555C179.201 97.3939 178.596 98.3001 177.822 99.0742C177.048 99.8483 176.142 100.462 175.104 100.915C174.065 101.349 172.961 101.566 171.79 101.566H169.468C168.297 101.566 167.193 101.349 166.154 100.915C165.116 100.462 164.21 99.8483 163.436 99.0742C162.661 98.3001 162.048 97.3939 161.595 96.3555C161.16 95.3171 160.943 94.2126 160.943 93.042V79.958C160.943 78.7874 161.16 77.6829 161.595 76.6445C162.048 75.6061 162.661 74.6999 163.436 73.9258C164.21 73.1517 165.116 72.5475 166.154 72.1133C167.193 71.6602 168.297 71.4336 169.468 71.4336H171.79C172.961 71.4336 174.065 71.6602 175.104 72.1133C176.142 72.5475 177.048 73.1517 177.822 73.9258C178.596 74.6999 179.201 75.6061 179.635 76.6445C180.088 77.6829 180.314 78.7874 180.314 79.958V86.7832H164.427V93.2402C164.427 93.9388 164.559 94.5996 164.823 95.2227C165.088 95.8268 165.446 96.3555 165.899 96.8086C166.353 97.2617 166.881 97.6204 167.485 97.8848C168.108 98.1491 168.769 98.2812 169.468 98.2812H171.79C172.489 98.2812 173.14 98.1491 173.744 97.8848C174.367 97.6204 174.905 97.2617 175.358 96.8086C175.812 96.3555 176.17 95.8268 176.435 95.2227C176.699 94.5996 176.831 93.9388 176.831 93.2402V91.3145L180.314 91.8809V93.042ZM176.831 79.7598C176.831 79.0612 176.699 78.4098 176.435 77.8057C176.17 77.1826 175.812 76.6445 175.358 76.1914C174.905 75.7383 174.367 75.3796 173.744 75.1152C173.14 74.8509 172.489 74.7188 171.79 74.7188H169.468C168.769 74.7188 168.108 74.8509 167.485 75.1152C166.881 75.3796 166.353 75.7383 165.899 76.1914C165.446 76.6445 165.088 77.1826 164.823 77.8057C164.559 78.4098 164.427 79.0612 164.427 79.7598V84.0645H176.831V79.7598ZM205.491 101L203.565 98.1113C202.772 99.1497 201.781 99.9899 200.592 100.632C199.402 101.255 198.1 101.566 196.684 101.566H195.806C194.635 101.566 193.531 101.349 192.492 100.915C191.454 100.462 190.548 99.8483 189.773 99.0742C188.999 98.3001 188.386 97.3939 187.933 96.3555C187.498 95.3171 187.281 94.2126 187.281 93.042V92.7588C187.281 91.5882 187.498 90.4837 187.933 89.4453C188.386 88.4069 188.999 87.5007 189.773 86.7266C190.548 85.9525 191.454 85.3483 192.492 84.9141C193.531 84.4609 194.635 84.2344 195.806 84.2344H203.169V79.7598C203.169 79.0612 203.037 78.4098 202.772 77.8057C202.508 77.1826 202.149 76.6445 201.696 76.1914C201.243 75.7383 200.705 75.3796 200.082 75.1152C199.478 74.8509 198.826 74.7188 198.128 74.7188H196.089C195.39 74.7188 194.729 74.8509 194.106 75.1152C193.502 75.3796 192.974 75.7383 192.521 76.1914C192.067 76.6445 191.709 77.1826 191.444 77.8057C191.18 78.4098 191.048 79.0612 191.048 79.7598V80.8076L187.564 80.2412V79.958C187.564 78.7874 187.782 77.6829 188.216 76.6445C188.669 75.6061 189.283 74.6999 190.057 73.9258C190.831 73.1517 191.737 72.5475 192.775 72.1133C193.814 71.6602 194.918 71.4336 196.089 71.4336H198.128C199.299 71.4336 200.403 71.6602 201.441 72.1133C202.48 72.5475 203.386 73.1517 204.16 73.9258C204.934 74.6999 205.538 75.6061 205.973 76.6445C206.426 77.6829 206.652 78.7874 206.652 79.958V101H205.491ZM203.169 86.9531H195.806C195.107 86.9531 194.446 87.0853 193.823 87.3496C193.219 87.6139 192.69 87.9821 192.237 88.4541C191.784 88.9072 191.425 89.4453 191.161 90.0684C190.897 90.6725 190.765 91.3239 190.765 92.0225V93.2402C190.765 93.9388 190.897 94.5996 191.161 95.2227C191.425 95.8268 191.784 96.3555 192.237 96.8086C192.69 97.2617 193.219 97.6204 193.823 97.8848C194.446 98.1491 195.107 98.2812 195.806 98.2812H198.128C198.826 98.2812 199.478 98.1491 200.082 97.8848C200.705 97.6204 201.243 97.2617 201.696 96.8086C202.149 96.3555 202.508 95.8268 202.772 95.2227C203.037 94.5996 203.169 93.9388 203.169 93.2402V86.9531ZM224.183 101C223.125 101 222.125 100.802 221.181 100.405C220.256 100.009 219.444 99.4613 218.745 98.7627C218.065 98.0641 217.518 97.2523 217.103 96.3271C216.706 95.402 216.508 94.4108 216.508 93.3535V75.3135H211.297V72H216.508V65.0332L219.991 64.4668V72H227.354V75.3135H219.991V93.5234C219.991 94.1087 220.095 94.6562 220.303 95.166C220.529 95.6569 220.831 96.0911 221.209 96.4688C221.587 96.8464 222.03 97.1484 222.54 97.375C223.05 97.5827 223.597 97.6865 224.183 97.6865H227.354V101H224.183ZM234.661 65.0332V60.3887H238.711V65.0332H234.661ZM234.944 101V72H238.428V101H234.944ZM255.675 101H253.947L243.667 72H247.15L254.712 93.9766L254.825 95.4775L254.938 93.9766L262.472 72H265.955L255.675 101ZM289.404 93.042C289.404 94.2126 289.178 95.3171 288.725 96.3555C288.29 97.3939 287.686 98.3001 286.912 99.0742C286.138 99.8483 285.232 100.462 284.193 100.915C283.155 101.349 282.05 101.566 280.88 101.566H278.558C277.387 101.566 276.283 101.349 275.244 100.915C274.206 100.462 273.299 99.8483 272.525 99.0742C271.751 98.3001 271.138 97.3939 270.685 96.3555C270.25 95.3171 270.033 94.2126 270.033 93.042V79.958C270.033 78.7874 270.25 77.6829 270.685 76.6445C271.138 75.6061 271.751 74.6999 272.525 73.9258C273.299 73.1517 274.206 72.5475 275.244 72.1133C276.283 71.6602 277.387 71.4336 278.558 71.4336H280.88C282.05 71.4336 283.155 71.6602 284.193 72.1133C285.232 72.5475 286.138 73.1517 286.912 73.9258C287.686 74.6999 288.29 75.6061 288.725 76.6445C289.178 77.6829 289.404 78.7874 289.404 79.958V86.7832H273.517V93.2402C273.517 93.9388 273.649 94.5996 273.913 95.2227C274.177 95.8268 274.536 96.3555 274.989 96.8086C275.442 97.2617 275.971 97.6204 276.575 97.8848C277.198 98.1491 277.859 98.2813 278.558 98.2813H280.88C281.578 98.2813 282.23 98.1491 282.834 97.8848C283.457 97.6204 283.995 97.2617 284.448 96.8086C284.901 96.3555 285.26 95.8268 285.524 95.2227C285.789 94.5996 285.921 93.9388 285.921 93.2402V91.3145L289.404 91.8809V93.042ZM285.921 79.7598C285.921 79.0612 285.789 78.4098 285.524 77.8057C285.26 77.1826 284.901 76.6445 284.448 76.1914C283.995 75.7383 283.457 75.3796 282.834 75.1152C282.23 74.8509 281.578 74.7188 280.88 74.7188H278.558C277.859 74.7188 277.198 74.8509 276.575 75.1152C275.971 75.3796 275.442 75.7383 274.989 76.1914C274.536 76.6445 274.177 77.1826 273.913 77.8057C273.649 78.4098 273.517 79.0612 273.517 79.7598V84.0645H285.921V79.7598ZM322.539 101V73.1611L322.284 74.8887L312.854 101H310.928L301.412 74.8887L301.186 73.1611V101H297.532V60.3887H299.43L311.749 93.6934L311.862 95.1943L311.976 93.6934L324.267 60.3887H326.192V101H322.539ZM353.125 93.042C353.125 94.2126 352.898 95.3171 352.445 96.3555C352.011 97.3939 351.407 98.3001 350.633 99.0742C349.859 99.8483 348.952 100.462 347.914 100.915C346.876 101.349 345.771 101.566 344.601 101.566H342.278C341.108 101.566 340.003 101.349 338.965 100.915C337.926 100.462 337.02 99.8483 336.246 99.0742C335.472 98.3001 334.858 97.3939 334.405 96.3555C333.971 95.3171 333.754 94.2126 333.754 93.042V79.958C333.754 78.7874 333.971 77.6829 334.405 76.6445C334.858 75.6061 335.472 74.6999 336.246 73.9258C337.02 73.1517 337.926 72.5475 338.965 72.1133C340.003 71.6602 341.108 71.4336 342.278 71.4336H344.601C345.771 71.4336 346.876 71.6602 347.914 72.1133C348.952 72.5475 349.859 73.1517 350.633 73.9258C351.407 74.6999 352.011 75.6061 352.445 76.6445C352.898 77.6829 353.125 78.7874 353.125 79.958V86.7832H337.237V93.2402C337.237 93.9388 337.369 94.5996 337.634 95.2227C337.898 95.8268 338.257 96.3555 338.71 96.8086C339.163 97.2617 339.692 97.6204 340.296 97.8848C340.919 98.1491 341.58 98.2813 342.278 98.2813H344.601C345.299 98.2813 345.951 98.1491 346.555 97.8848C347.178 97.6204 347.716 97.2617 348.169 96.8086C348.622 96.3555 348.981 95.8268 349.245 95.2227C349.509 94.5996 349.642 93.9388 349.642 93.2402V91.3145L353.125 91.8809V93.042ZM349.642 79.7598C349.642 79.0612 349.509 78.4098 349.245 77.8057C348.981 77.1826 348.622 76.6445 348.169 76.1914C347.716 75.7383 347.178 75.3796 346.555 75.1152C345.951 74.8509 345.299 74.7188 344.601 74.7188H342.278C341.58 74.7188 340.919 74.8509 340.296 75.1152C339.692 75.3796 339.163 75.7383 338.71 76.1914C338.257 76.6445 337.898 77.1826 337.634 77.8057C337.369 78.4098 337.237 79.0612 337.237 79.7598V84.0645H349.642V79.7598Z" fill="#3299FF"/>
<defs>
<filter id="filter0_d_71_5" x="0" y="0" width="467" height="163" filterUnits="userSpaceOnUse" color-interpolation-filters="sRGB">
<feFlood flood-opacity="0" result="BackgroundImageFix"/>
<feColorMatrix in="SourceAlpha" type="matrix" values="0 0 0 0 0 0 0 0 0 0 0 0 0 0 0 0 0 0 127 0" result="hardAlpha"/>
<feMorphology radius="12" operator="dilate" in="SourceAlpha" result="effect1_dropShadow_71_5"/>
<feOffset/>
<feGaussianBlur stdDeviation="10"/>
<feComposite in2="hardAlpha" operator="out"/>
<feColorMatrix type="matrix" values="0 0 0 0 0 0 0 0 0 0 0 0 0 0 0 0 0 0 0.25 0"/>
<feBlend mode="normal" in2="BackgroundImageFix" result="effect1_dropShadow_71_5"/>
<feBlend mode="normal" in="SourceGraphic" in2="effect1_dropShadow_71_5" result="shape"/>
</filter>
</defs>
</svg>
