<svg width="68" height="69" viewBox="0 0 68 69" fill="none" xmlns="http://www.w3.org/2000/svg">
<ellipse cx="34" cy="34.5" rx="34" ry="34.5" fill="#8371ED"/>
<path d="M15 28.7067C15 27.9426 15.8223 27.4608 16.4889 27.8343L32.4889 36.8005C32.8045 36.9774 33 37.311 33 37.6729V54.2933C33 55.0574 32.1777 55.5392 31.5111 55.1657L15.5111 46.1995C15.1955 46.0226 15 45.689 15 45.3271V28.7067Z" fill="white"/>
<path d="M54 28.7067C54 27.9426 53.1777 27.4608 52.5111 27.8343L36.5111 36.8005C36.1955 36.9774 36 37.311 36 37.6729V54.2933C36 55.0574 36.8223 55.5392 37.4889 55.1657L53.4889 46.1995C53.8045 46.0226 54 45.689 54 45.3271V28.7067Z" fill="white"/>
<path d="M52 32.7089C52 31.9443 51.1768 31.4626 50.5102 31.8371L39.5102 38.0177C39.195 38.1948 39 38.5281 39 38.8895V50.2911C39 51.0557 39.8232 51.5374 40.4898 51.1629L51.4898 44.9823C51.805 44.8052 52 44.4719 52 44.1105V32.7089Z" fill="#3299FF"/>
<path d="M17 32.7089C17 31.9443 17.8232 31.4626 18.4898 31.8371L29.4898 38.0177C29.805 38.1948 30 38.5281 30 38.8895V50.2911C30 51.0557 29.1768 51.5374 28.5102 51.1629L17.5102 44.9823C17.195 44.8052 17 44.4719 17 44.1105V32.7089Z" fill="#9569E9"/>
<g filter="url(#filter0_d_6_458)">
<path d="M33.7127 14.2605C34.0083 14.098 34.366 14.0954 34.6639 14.2538L51.3387 23.117C52.0463 23.4931 52.0463 24.5069 51.3387 24.883L34.6639 33.7462C34.366 33.9046 34.0083 33.902 33.7127 33.7395L17.5936 24.8763C16.9027 24.4964 16.9027 23.5036 17.5936 23.1237L33.7127 14.2605Z" fill="white"/>
</g>
<path d="M33.8125 17.242C34.1001 17.0902 34.4435 17.0879 34.7332 17.2356L46.2528 23.1091C46.9804 23.4801 46.9804 24.5199 46.2528 24.8909L34.7332 30.7644C34.4435 30.9121 34.1001 30.9098 33.8125 30.758L22.6769 24.8845C21.9656 24.5093 21.9656 23.4907 22.6769 23.1155L33.8125 17.242Z" fill="#F03CD6"/>
<defs>
<filter id="filter0_d_6_458" x="13.0754" y="14.1368" width="42.7939" height="27.7265" filterUnits="userSpaceOnUse" color-interpolation-filters="sRGB">
<feFlood flood-opacity="0" result="BackgroundImageFix"/>
<feColorMatrix in="SourceAlpha" type="matrix" values="0 0 0 0 0 0 0 0 0 0 0 0 0 0 0 0 0 0 127 0" result="hardAlpha"/>
<feOffset dy="4"/>
<feGaussianBlur stdDeviation="2"/>
<feComposite in2="hardAlpha" operator="out"/>
<feColorMatrix type="matrix" values="0 0 0 0 0 0 0 0 0 0 0 0 0 0 0 0 0 0 0.25 0"/>
<feBlend mode="normal" in2="BackgroundImageFix" result="effect1_dropShadow_6_458"/>
<feBlend mode="normal" in="SourceGraphic" in2="effect1_dropShadow_6_458" result="shape"/>
</filter>
</defs>
</svg>
