<svg width="68" height="68" viewBox="0 0 68 68" fill="none" xmlns="http://www.w3.org/2000/svg">
<circle cx="34" cy="34" r="34" fill="#C9C9C9"/>
<g filter="url(#filter0_d_6_467)">
<path fill-rule="evenodd" clip-rule="evenodd" d="M23.3333 46C23.3333 46.5523 23.781 47 24.3333 47L41.107 47C41.1093 47 41.1111 47.0018 41.1111 47.0041V47.0041C41.1111 47.0064 41.113 47.0082 41.1152 47.0082C41.6984 47.0076 42.2758 46.8694 42.8146 46.6016C43.3546 46.3332 43.8453 45.9397 44.2587 45.4437C44.672 44.9477 44.9999 44.3589 45.2236 43.7108C45.4473 43.0627 45.5624 42.3681 45.5624 41.6666C45.5624 40.9652 45.4473 40.2706 45.2236 39.6225C44.9999 38.9744 44.672 38.3856 44.2587 37.8896C43.8453 37.3936 43.3546 37.0001 42.8146 36.7317C42.3368 36.4942 41.8287 36.3587 41.3131 36.3306C41.2458 36.3324 41.1785 36.3333 41.1111 36.3333L24.3333 36.3333C23.781 36.3333 23.3333 36.781 23.3333 37.3333V46ZM47.3965 34.1242C47.1767 33.8604 47.1767 33.4729 47.3965 33.2091V33.2091C48.2219 32.2186 48.8767 31.0427 49.3234 29.7486C49.7701 28.4545 50 27.0674 50 25.6666C50 24.2659 49.7701 22.8788 49.3234 21.5847C48.8767 20.2906 48.2219 19.1147 47.3965 18.1242C46.5711 17.1337 45.5912 16.348 44.5127 15.8119C43.4343 15.2759 42.2784 15 41.1111 15L23.3333 15H19C18.4477 15 18 15.4477 18 16V20.3333L18 31V36.3333V47V51.3333C18 51.8856 18.4477 52.3333 19 52.3333H23.3333L41.1111 52.3333C42.2784 52.3333 43.4343 52.0574 44.5127 51.5214C45.5912 50.9853 46.5711 50.1996 47.3965 49.2091C48.2219 48.2186 48.8767 47.0427 49.3234 45.7486C49.7701 44.4545 50 43.0674 50 41.6666C50 40.2659 49.7701 38.8788 49.3234 37.5847C48.8767 36.2906 48.2219 35.1147 47.3965 34.1242V34.1242ZM41.1111 30.9634C41.1111 30.9836 41.0947 31 41.0745 31L24.3333 31C23.781 31 23.3333 30.5523 23.3333 30V21.3333C23.3333 20.781 23.781 20.3333 24.3333 20.3333L41.0745 20.3333C41.0947 20.3333 41.1111 20.3497 41.1111 20.3699V20.3699C41.1111 20.3901 41.1275 20.4064 41.1477 20.4066C41.7109 20.4123 42.268 20.5481 42.7886 20.8068C43.3204 21.0712 43.8037 21.4587 44.2107 21.9471C44.6178 22.4356 44.9407 23.0155 45.1609 23.6537C45.3812 24.2918 45.4946 24.9759 45.4946 25.6666C45.4946 26.3574 45.3812 27.0414 45.1609 27.6796C44.9407 28.3178 44.6178 28.8977 44.2107 29.3862C43.8037 29.8746 43.3204 30.2621 42.7886 30.5264C42.268 30.7852 41.7109 30.921 41.1477 30.9267C41.1275 30.9269 41.1111 30.9432 41.1111 30.9634V30.9634Z" fill="black"/>
</g>
<defs>
<filter id="filter0_d_6_467" x="14" y="15" width="40" height="45.3333" filterUnits="userSpaceOnUse" color-interpolation-filters="sRGB">
<feFlood flood-opacity="0" result="BackgroundImageFix"/>
<feColorMatrix in="SourceAlpha" type="matrix" values="0 0 0 0 0 0 0 0 0 0 0 0 0 0 0 0 0 0 127 0" result="hardAlpha"/>
<feOffset dy="4"/>
<feGaussianBlur stdDeviation="2"/>
<feComposite in2="hardAlpha" operator="out"/>
<feColorMatrix type="matrix" values="0 0 0 0 0 0 0 0 0 0 0 0 0 0 0 0 0 0 0.25 0"/>
<feBlend mode="normal" in2="BackgroundImageFix" result="effect1_dropShadow_6_467"/>
<feBlend mode="normal" in="SourceGraphic" in2="effect1_dropShadow_6_467" result="shape"/>
</filter>
</defs>
</svg>
