<svg width="564" height="6" viewBox="0 0 564 6" fill="none" xmlns="http://www.w3.org/2000/svg">
<path d="M3 5.66667C4.47276 5.66667 5.66667 4.47276 5.66667 3C5.66667 1.52724 4.47276 0.333333 3 0.333333C1.52724 0.333333 0.333333 1.52724 0.333333 3C0.333333 4.47276 1.52724 5.66667 3 5.66667ZM560.5 5.66667C561.973 5.66667 563.167 4.47276 563.167 3C563.167 1.52724 561.973 0.333333 560.5 0.333333C559.027 0.333333 557.833 1.52724 557.833 3C557.833 4.47276 559.027 5.66667 560.5 5.66667ZM3 3.5L560.5 3.5V2.5L3 2.5V3.5Z" fill="black"/>
</svg>
